<svg id="Calque_1" data-name="Calque 1" xmlns="http://www.w3.org/2000/svg" width="48.38mm" height="7.94mm" viewBox="0 0 137.13 22.5"><defs><style>.cls-1,.cls-2,.cls-3{fill:#fff;}.cls-2{opacity:0.4;}.cls-3{opacity:0.8;}</style></defs><title>logo-FR-white</title><path class="cls-1" d="M41.34,21.9h4.47v-2H43.3V16.24h1.81V14.11H43.3V10.62h2.51v-2H41.34V21.9Zm-3.4,0h2V8.61h-2v5.5H36.42V8.61h-2V21.9h2V16.12h1.52V21.9Zm-6.48-4.56v1.83a0.84,0.84,0,0,1-.74,1c-0.69,0-.69-1-0.69-1V11.34s0-1,.69-1a0.84,0.84,0,0,1,.74,1v1.83H33.3V11.34s0-2.88-2.6-2.88-2.6,2.88-2.6,2.88v7.83s0,2.88,2.6,2.88,2.6-2.87,2.6-2.87V17.35H31.47ZM24.83,8.61V19.17s0,1-.65,1-0.65-1-.65-1V8.61h-2V19.17s0,2.88,2.6,2.88,2.6-2.87,2.6-2.87V8.61h-2Zm-6.37,3.91c0,1.9-.9,2-1.45,2V10.55c0.54,0,1.45.07,1.45,2m2,9.39-1.25-6.44a3.67,3.67,0,0,0,1.09-3c0-2.49-1-3.83-3.33-3.83h-2V21.9h2V16.3h0.52l1,5.61h2ZM8.84,17.13H7.51l0.56-4.19,0.06-.34H8.23l0.05,0.34Zm-2,4.77,0.36-2.71H9.11L9.48,21.9h1.9l-2-13.29H7L5,21.9h1.9ZM0,21.9H4.54V20.1H2V8.61H0V21.9Z"/><path class="cls-1" d="M135.55,18h1.11l0.47-9.43h-2.06Zm-0.37,3.48H137V19.57h-1.84v1.95Zm-5.53,0h1.9V8.61h-1.9V21.51ZM126.37,8.61V18.86s0,0.95-.63.95-0.63-.95-0.63-0.95V8.61h-1.9V18.86s0,2.79,2.53,2.79,2.53-2.79,2.53-2.79V8.61h-1.9ZM120,11.26v7.6s0,0.95-.63.95-0.63-.95-0.63-0.95v-7.6s0-.95.63-0.95,0.63,0.95.63,0.95m1.9,7.6v-7.6s0-2.79-2.53-2.79-2.53,2.79-2.53,2.79v7.6s0,2.79,2.53,2.79,2.53-2.79,2.53-2.79m-12.06-8.31v11h1.9v-11h1.79V8.61h-5.48v1.95h1.79Zm-4.42,11h1.9V8.61h-1.9V21.51Zm-4.64-11c1.33,0,1.42.33,1.4,4.55s-0.07,4.57-1.4,4.57V10.5Zm3.37,4.57c0-5.06-.26-6.45-3.78-6.46H98.92V21.51h1.49c3.51,0,3.78-1.4,3.78-6.45M92.91,21.51h1.9V8.61h-1.9V21.51ZM89.63,8.61V18.86s0,0.95-.63.95-0.63-.95-0.63-0.95V8.61h-1.9V18.86s0,2.79,2.53,2.79,2.53-2.79,2.53-2.79V8.61h-1.9Zm-6.36,2.65v7.6s0,0.95-.63.95S82,18.86,82,18.86v-7.6s0-.95.63-0.95,0.63,0.95.63,0.95m1.9,7.6v-7.6s0-2.79-2.53-2.79-2.53,2.79-2.53,2.79v7.6s0,2.79,2.53,2.79a3,3,0,0,0,.95-0.16,2,2,0,0,0,1.95,1V20.88a1.17,1.17,0,0,1-.75-0.46,3.85,3.85,0,0,0,.39-1.56"/><path class="cls-2" d="M63.19,21.93V12.55H51.32v9.38H63.19Zm-8-4.44H53.22V15.55h1.93v1.93h0Z"/><polygon class="cls-1" points="51.32 12.55 57.17 6.93 68.7 6.93 63.19 12.55 51.32 12.55 51.32 12.55"/><path class="cls-3" d="M74.21,21.93V12.55L68.7,6.93l-5.51,5.62v9.38h3.34V15.55h1.93v6.38h5.75Zm-1.92-4.44H70.36V15.55h1.93v1.93h0Z"/><path class="cls-1" d="M63.32,3.09a0.19,0.19,0,0,1-.2.17H62.9a0.19,0.19,0,0,1-.2-0.17L62.44,0.17A0.19,0.19,0,0,1,62.64,0h0.74a0.19,0.19,0,0,1,.2.17L63.32,3.09h0Z"/><path class="cls-1" d="M70,4.12a0.19,0.19,0,0,1-.26,0l-0.19-.11a0.19,0.19,0,0,1-.09-0.25l1.23-2.66a0.19,0.19,0,0,1,.26,0l0.64,0.37a0.19,0.19,0,0,1,.09.25L70,4.12h0Z"/><path class="cls-1" d="M56.05,4.12a0.19,0.19,0,0,0,.26,0l0.19-.11a0.19,0.19,0,0,0,.09-0.25L55.35,1.15a0.19,0.19,0,0,0-.26,0l-0.64.37a0.19,0.19,0,0,0-.09.25l1.69,2.4h0Z"/></svg>